PathFileType	4	(X/Y/Z)	/Users/itak/Documents/Research/Walk-IL/dataset/trc/00462_00167.trc
DataRate	CameraRate	NumFrames	NumMarkers	Units	OrigDataRate	OrigDataStartFrame	OrigNumFrames
100.000000	100.000000	4	53	mm	100.000000	420	560
Frame#	Time	RPSI			LPSI			L3			STRN			T10			C7			CLAV			RBAK			LBAK			LSHO			LUPA			LAEL			LAOL			LWTS			LWPS			LFRA			LIFD			LHPS			LHTS			RSHO			RUPA			RAEL			RAOL			RWTS			RWPS			RFRA			RIFD			RHTS			RHPS			RBHD			LFHD			RFHD			LBHD			LHIP			RHIP			RASI			LASI			LKNE			LTHI			LANK			LTIP			LTOE			LMT1			LMT5			LHEE			RKNE			RTHI			RANK			RTIP			RTOE			RMT1			RMT5			RHEE			
		X1	Y1	Z1	X2	Y2	Z2	X3	Y3	Z3	X4	Y4	Z4	X5	Y5	Z5	X6	Y6	Z6	X7	Y7	Z7	X8	Y8	Z8	X9	Y9	Z9	X10	Y10	Z10	X11	Y11	Z11	X12	Y12	Z12	X13	Y13	Z13	X14	Y14	Z14	X15	Y15	Z15	X16	Y16	Z16	X17	Y17	Z17	X18	Y18	Z18	X19	Y19	Z19	X20	Y20	Z20	X21	Y21	Z21	X22	Y22	Z22	X23	Y23	Z23	X24	Y24	Z24	X25	Y25	Z25	X26	Y26	Z26	X27	Y27	Z27	X28	Y28	Z28	X29	Y29	Z29	X30	Y30	Z30	X31	Y31	Z31	X32	Y32	Z32	X33	Y33	Z33	X34	Y34	Z34	X35	Y35	Z35	X36	Y36	Z36	X37	Y37	Z37	X38	Y38	Z38	X39	Y39	Z39	X40	Y40	Z40	X41	Y41	Z41	X42	Y42	Z42	X43	Y43	Z43	X44	Y44	Z44	X45	Y45	Z45	X46	Y46	Z46	X47	Y47	Z47	X48	Y48	Z48	X49	Y49	Z49	X50	Y50	Z50	X51	Y51	Z51	X52	Y52	Z52	X53	Y53	Z53	

421	4.2	273.5437622070312	957.3221435546875	71.83223724365234	415.3563232421875	953.9638061523438	89.55669403076172	340.1159362792969	1055.766967773438	92.85076904296875	323.4605712890625	1255.254028320312	366.991455078125	353.1884460449219	1179.031982421875	77.33396148681641	335.4582824707031	1447.414672851562	145.7124481201172	332.7027282714844	1367.9580078125	330.5157775878906	250.4620208740234	1330.660278320312	72.65045166015625	438.2435913085938	1397.313598632812	122.1291580200195	507.8568725585938	1423.672973632812	228.5571136474609	607.9473266601562	1307.454345703125	238.3314819335938	645.4815063476562	1099.250854492188	292.7944641113281	592.2666625976562	1067.691772460938	209.9574279785156	582.0514526367188	928.414306640625	417.5313415527344	641.8817749023438	900.1580810546875	383.6049499511719	648.7314453125	1020.288391113281	337.2658996582031	579.54443359375	765.8792724609375	467.19873046875	639.719970703125	827.9127807617188	414.7606811523438	588.5692749023438	850.1296997070312	460.470947265625	171.4854278564453	1424.884521484375	194.2735595703125	99.37083435058594	1367.07177734375	161.8364868164062	22.32134246826172	1088.758178710938	142.1216888427734	71.61125183105469	1064.76904296875	103.091194152832	27.63825988769531	895.5757446289062	270.1917724609375	-13.89503002166748	875.8960571289062	194.6110076904297	7.383569717407227	1031.323364257812	148.7743530273438	4.748787879943848	741.2808837890625	287.6301879882812	2.462221622467041	801.6898803710938	293.2198181152344	-23.37923240661621	791.7847900390625	221.7187194824219	238.5952453613281	1636.487060546875	293.4113159179688	440.1404113769531	1663.692749023438	334.5510559082031	326.061767578125	1654.83984375	398.3688354492188	385.5196838378906	1653.093139648438	192.2879180908203	508.2716369628906	852.4708251953125	231.6160278320312	116.8719863891602	865.2407836914062	185.0102844238281	173.9716339111328	912.8327026367188	288.0475158691406	427.3499755859375	896.2755126953125	324.6691589355469	476.1815490722656	439.5500183105469	265.85693359375	492.0321655273438	593.8251953125	280.0369873046875	465.1329040527344	32.94649505615234	237.4515533447266	486.7587585449219	295.5579528808594	276.0602722167969	389.5595092773438	41.19417953491211	470.5884704589844	364.2888793945312	49.96369171142578	394.6153869628906	478.9564208984375	37.34791564941406	390.691650390625	401.3650207519531	41.22219848632812	192.1162261962891	129.3473205566406	482.6036987304688	297.0054016113281	103.4636001586914	739.944580078125	220.6271209716797	127.4001693725586	52.89831161499023	212.9004364013672	118.1276931762695	338.8389282226562	286.7031555175781	163.9431304931641	65.51415252685547	428.1506958007812	204.447021484375	60.5157470703125	366.1311645507812	101.9164047241211	55.78079605102539	341.5291137695312	177.5255584716797	49.54716110229492	149.3355102539062	
422	4.21	272.4089050292969	957.5548706054688	75.84621429443359	414.2527465820312	954.100830078125	92.86893463134766	339.2280578613281	1055.759521484375	95.80950927734375	322.977294921875	1255.061279296875	370.2197875976562	352.6690063476562	1178.986938476562	80.13077545166016	334.945068359375	1447.282836914062	148.9334716796875	332.0688781738281	1367.789184570312	333.7102966308594	249.8210144042969	1330.481323242188	75.83403778076172	437.928466796875	1397.262329101562	125.5876922607422	507.2031860351562	1423.579467773438	232.2982177734375	607.358154296875	1307.582153320312	242.9940032958984	645.2392578125	1099.753173828125	298.4877014160156	592.791748046875	1067.705810546875	215.3956146240234	581.1632080078125	929.5325927734375	423.6338806152344	641.2029418945312	901.0810546875	390.2713928222656	648.2730712890625	1021.024841308594	343.3779602050781	578.355712890625	767.3701782226562	474.33203125	638.833984375	828.992431640625	421.9287719726562	587.3568115234375	851.5492553710938	467.0986938476562	170.8732299804688	1424.641967773438	197.5375671386719	98.72957611083984	1366.72509765625	165.2557678222656	21.40613746643066	1088.31787109375	146.8545074462891	70.71536254882812	1063.736450195312	107.9444046020508	26.76546096801758	897.8095092773438	278.5449829101562	-14.6616907119751	876.4274291992188	203.3053894042969	6.448962211608887	1030.995849609375	154.5579681396484	3.562659025192261	744.0888061523438	299.6213989257812	1.23585569858551	804.6578979492188	303.7816772460938	-24.40118217468262	792.97314453125	232.4539184570312	237.7145080566406	1635.969482421875	297.1029052734375	439.3104858398438	1663.619384765625	337.7298583984375	325.4076538085938	1654.572265625	401.8235778808594	384.3662414550781	1652.791748046875	195.6218566894531	507.9980163574219	852.6812744140625	234.9103088378906	116.679443359375	864.7622680664062	189.0657196044922	173.3843841552734	912.5127563476562	292.5450744628906	427.0917663574219	896.4044189453125	328.0800170898438	475.8750305175781	439.6875	267.55029296875	491.439697265625	594.019775390625	282.460205078125	464.9738464355469	33.03487777709961	237.4211578369141	486.620361328125	295.5964660644531	276.9585571289062	389.5902404785156	41.08514785766602	470.6535949707031	364.3152770996094	49.93975830078125	394.6773071289062	478.9784545898438	37.3350715637207	390.7080688476562	401.2338256835938	41.34154891967773	192.1377410888672	130.9672546386719	480.9606018066406	297.6351623535156	102.5746688842773	739.7360229492188	225.0080718994141	124.6213073730469	48.86347198486328	230.8573150634766	118.5041046142578	337.8716735839844	293.1127319335938	164.8691101074219	66.42740631103516	445.3485107421875	204.2302703857422	60.07097244262695	382.6444396972656	101.1830825805664	55.55656433105469	360.0621032714844	173.5486297607422	43.14112091064453	166.6650543212891	
423	4.22	271.1996765136719	957.6829833984375	79.95761871337891	413.0579528808594	954.1942749023438	96.28988647460938	338.0634460449219	1055.570922851562	98.94168853759766	322.4185485839844	1254.916625976562	373.263671875	351.7914123535156	1178.7978515625	82.87148284912109	334.2427368164062	1447.056274414062	151.9059143066406	331.353271484375	1367.654663085938	336.6671447753906	248.9062957763672	1330.196044921875	78.88179779052734	437.3848571777344	1397.093383789062	128.7227783203125	506.3983764648438	1423.411743164062	235.6471252441406	606.59521484375	1307.6435546875	247.3136291503906	644.7574462890625	1100.2294921875	303.9488220214844	593.13916015625	1067.65673828125	220.55908203125	580.1204833984375	930.4691772460938	429.3457336425781	640.442626953125	901.9324340820312	396.597412109375	647.621826171875	1021.712097167969	349.2127685546875	577.1629028320312	768.623779296875	480.9257202148438	637.9483642578125	829.9884033203125	428.7003784179688	586.05322265625	852.7677612304688	473.2823181152344	170.1125183105469	1424.408081054688	200.6363830566406	97.90525054931641	1366.386108398438	168.6049346923828	20.36707305908203	1087.872680664062	151.7830657958984	69.64771270751953	1062.745849609375	112.9264297485352	26.14460754394531	899.8587036132812	286.8229675292969	-15.44385719299316	876.9661254882812	212.0482635498047	5.426136493682861	1030.663696289062	160.5119018554688	2.737944364547729	746.732177734375	311.1808471679688	0.4017100632190704	807.3965454101562	314.04541015625	-25.3467845916748	794.153076171875	243.0458526611328	236.7335968017578	1635.392456054688	300.6255493164062	438.3719177246094	1663.432861328125	340.8271484375	324.6118774414062	1654.137084960938	405.1548156738281	383.1449584960938	1652.498413085938	198.8672180175781	507.6785888671875	852.9080200195312	238.3318481445312	116.4194107055664	864.1472778320312	193.1111450195312	172.767333984375	912.003173828125	297.0605773925781	426.7870483398438	896.5506591796875	331.6170654296875	475.5499267578125	439.8232421875	269.2981262207031	490.9112548828125	594.1930541992188	284.9280090332031	464.8137817382812	33.11757278442383	237.389404296875	486.4559326171875	295.6399841308594	277.8966369628906	389.6278686523438	40.99065399169922	470.7085571289062	364.337158203125	49.91720581054688	394.7343444824219	478.9968566894531	37.32152557373047	390.7251281738281	401.1336975097656	41.46345520019531	192.1631622314453	132.2520141601562	479.2832641601562	298.2905578613281	101.6527862548828	739.3380737304688	229.4083862304688	122.5675964355469	45.71060562133789	246.8508453369141	118.8679504394531	337.0325927734375	298.9696350097656	166.3052368164062	66.18048095703125	460.5673217773438	204.5588989257812	59.33468246459961	397.2133178710938	101.0011978149414	54.98453903198242	376.5694885253906	170.3496856689453	38.26118850708008	182.1168823242188	
424	4.23	269.9392395019531	957.682861328125	84.13625335693359	411.7922058105469	954.2457275390625	99.82111358642578	336.6461486816406	1055.184692382812	102.2709350585938	321.7797241210938	1254.821166992188	376.1355895996094	350.5716857910156	1178.443359375	85.61628723144531	333.3503112792969	1446.720703125	154.6279449462891	330.5574035644531	1367.552612304688	339.3956604003906	247.73046875	1329.782104492188	81.80122375488281	436.59765625	1396.790893554688	131.5221557617188	505.4444885253906	1423.172607421875	238.5741729736328	605.6644897460938	1307.641723632812	251.2337493896484	644.0294799804688	1100.681518554688	309.1480102539062	593.2825317382812	1067.5556640625	225.4361267089844	578.9421997070312	931.2313842773438	434.6639404296875	639.6088256835938	902.7239379882812	402.5761108398438	646.7807006835938	1022.354614257812	354.7455749511719	575.9732666015625	769.6350708007812	486.9683837890625	637.0673217773438	830.9061889648438	435.0560607910156	584.6753540039062	853.7854614257812	479.0146789550781	169.2121734619141	1424.179077148438	203.5604095458984	96.90605926513672	1366.055786132812	171.8726196289062	19.20258903503418	1087.427856445312	156.9001770019531	68.39575958251953	1061.800903320312	118.0235366821289	25.759521484375	901.7193603515625	294.997314453125	-16.22942352294922	877.5035400390625	220.809814453125	4.310858726501465	1030.330810546875	166.6227722167969	2.248556137084961	749.1790771484375	322.3087463378906	-0.05106659233570099	809.8792114257812	324.0035400390625	-26.19906997680664	795.304443359375	253.4607696533203	235.6520080566406	1634.760009765625	303.9650573730469	437.3236083984375	1663.135986328125	343.8414001464844	323.6699829101562	1653.530517578125	408.3558044433594	381.8600463867188	1652.23583984375	202.0153350830078	507.329345703125	853.1431274414062	241.8593444824219	116.0726852416992	863.3914184570312	197.1349792480469	172.1321105957031	911.2911376953125	301.55517578125	426.4501953125	896.7059936523438	335.2606201171875	475.225830078125	439.952880859375	271.0980834960938	490.4788208007812	594.3452758789062	287.4446716308594	464.6637268066406	33.18791961669922	237.3594207763672	486.2755126953125	295.687744140625	278.8756713867188	389.6752624511719	40.91426086425781	470.7505187988281	364.3578186035156	49.89833068847656	394.7826843261719	479.013916015625	37.30571365356445	390.7425537109375	401.0624084472656	41.57250213623047	192.1855773925781	133.1719665527344	477.6011962890625	299.0440063476562	100.7103042602539	738.7374877929688	233.7889862060547	121.2100677490234	43.28094100952148	260.6286926269531	119.1794357299805	336.2496337890625	304.1701049804688	168.1332397460938	64.67880249023438	473.6885986328125	205.3509826660156	58.23999786376953	409.6957397460938	101.2646636962891	53.93467712402344	390.8750305175781	167.9492645263672	34.73970031738281	195.4049224853516	
